solid CATIA STL
  facet normal  0.000000e+000  1.000000e+000  0.000000e+000
    outer loop
      vertex  5.640000e+001  8.000000e+000  4.000000e+000
      vertex  5.440000e+001  8.000000e+000  4.000000e+000
      vertex  5.440000e+001  8.000000e+000  9.000000e+000
    endloop
  endfacet
  facet normal  -0.000000e+000  9.999999e-001  0.000000e+000
    outer loop
      vertex  5.640000e+001  8.000000e+000  4.000000e+000
      vertex  5.440000e+001  8.000000e+000  9.000000e+000
      vertex  5.453397e+001  8.000000e+000  9.500000e+000
    endloop
  endfacet
  facet normal  -0.000000e+000  1.000000e+000  0.000000e+000
    outer loop
      vertex  5.640000e+001  8.000000e+000  4.000000e+000
      vertex  5.453397e+001  8.000000e+000  9.500000e+000
      vertex  5.490000e+001  8.000000e+000  9.866025e+000
    endloop
  endfacet
  facet normal  -0.000000e+000  1.000000e+000  0.000000e+000
    outer loop
      vertex  5.640000e+001  8.000000e+000  4.000000e+000
      vertex  5.490000e+001  8.000000e+000  9.866025e+000
      vertex  5.540000e+001  8.000000e+000  1.000000e+001
    endloop
  endfacet
  facet normal  0.000000e+000  1.000000e+000  0.000000e+000
    outer loop
      vertex  5.640000e+001  8.000000e+000  4.000000e+000
      vertex  5.540000e+001  8.000000e+000  1.000000e+001
      vertex  5.590000e+001  8.000000e+000  9.866025e+000
    endloop
  endfacet
  facet normal  0.000000e+000  1.000000e+000  0.000000e+000
    outer loop
      vertex  5.640000e+001  8.000000e+000  4.000000e+000
      vertex  5.590000e+001  8.000000e+000  9.866025e+000
      vertex  5.626603e+001  8.000000e+000  9.500000e+000
    endloop
  endfacet
  facet normal  0.000000e+000  1.000000e+000  0.000000e+000
    outer loop
      vertex  5.640000e+001  8.000000e+000  4.000000e+000
      vertex  5.626603e+001  8.000000e+000  9.500000e+000
      vertex  5.640000e+001  8.000000e+000  9.000000e+000
    endloop
  endfacet
  facet normal  0.000000e+000  1.000000e+000  0.000000e+000
    outer loop
      vertex  4.065000e+001  8.000000e+000  4.000000e+000
      vertex  3.865000e+001  8.000000e+000  4.000000e+000
      vertex  3.865000e+001  8.000000e+000  9.000000e+000
    endloop
  endfacet
  facet normal  -0.000000e+000  9.999999e-001  0.000000e+000
    outer loop
      vertex  4.065000e+001  8.000000e+000  4.000000e+000
      vertex  3.865000e+001  8.000000e+000  9.000000e+000
      vertex  3.878397e+001  8.000000e+000  9.500000e+000
    endloop
  endfacet
  facet normal  -0.000000e+000  1.000000e+000  0.000000e+000
    outer loop
      vertex  4.065000e+001  8.000000e+000  4.000000e+000
      vertex  3.878397e+001  8.000000e+000  9.500000e+000
      vertex  3.915000e+001  8.000000e+000  9.866025e+000
    endloop
  endfacet
  facet normal  -0.000000e+000  1.000000e+000  0.000000e+000
    outer loop
      vertex  4.065000e+001  8.000000e+000  4.000000e+000
      vertex  3.915000e+001  8.000000e+000  9.866025e+000
      vertex  3.965000e+001  8.000000e+000  1.000000e+001
    endloop
  endfacet
  facet normal  0.000000e+000  1.000000e+000  0.000000e+000
    outer loop
      vertex  4.065000e+001  8.000000e+000  4.000000e+000
      vertex  3.965000e+001  8.000000e+000  1.000000e+001
      vertex  4.015000e+001  8.000000e+000  9.866025e+000
    endloop
  endfacet
  facet normal  0.000000e+000  1.000000e+000  0.000000e+000
    outer loop
      vertex  4.065000e+001  8.000000e+000  4.000000e+000
      vertex  4.015000e+001  8.000000e+000  9.866025e+000
      vertex  4.051603e+001  8.000000e+000  9.500000e+000
    endloop
  endfacet
  facet normal  0.000000e+000  1.000000e+000  0.000000e+000
    outer loop
      vertex  4.065000e+001  8.000000e+000  4.000000e+000
      vertex  4.051603e+001  8.000000e+000  9.500000e+000
      vertex  4.065000e+001  8.000000e+000  9.000000e+000
    endloop
  endfacet
  facet normal  0.000000e+000  1.000000e+000  0.000000e+000
    outer loop
      vertex  2.490000e+001  8.000000e+000  4.000000e+000
      vertex  2.290000e+001  8.000000e+000  4.000000e+000
      vertex  2.290000e+001  8.000000e+000  9.000000e+000
    endloop
  endfacet
  facet normal  -0.000000e+000  1.000000e+000  0.000000e+000
    outer loop
      vertex  2.490000e+001  8.000000e+000  4.000000e+000
      vertex  2.290000e+001  8.000000e+000  9.000000e+000
      vertex  2.303397e+001  8.000000e+000  9.500000e+000
    endloop
  endfacet
  facet normal  -0.000000e+000  1.000000e+000  0.000000e+000
    outer loop
      vertex  2.490000e+001  8.000000e+000  4.000000e+000
      vertex  2.303397e+001  8.000000e+000  9.500000e+000
      vertex  2.340000e+001  8.000000e+000  9.866025e+000
    endloop
  endfacet
  facet normal  -0.000000e+000  1.000000e+000  0.000000e+000
    outer loop
      vertex  2.490000e+001  8.000000e+000  4.000000e+000
      vertex  2.340000e+001  8.000000e+000  9.866025e+000
      vertex  2.390000e+001  8.000000e+000  1.000000e+001
    endloop
  endfacet
  facet normal  0.000000e+000  1.000000e+000  0.000000e+000
    outer loop
      vertex  2.490000e+001  8.000000e+000  4.000000e+000
      vertex  2.390000e+001  8.000000e+000  1.000000e+001
      vertex  2.440000e+001  8.000000e+000  9.866025e+000
    endloop
  endfacet
  facet normal  0.000000e+000  1.000000e+000  0.000000e+000
    outer loop
      vertex  2.490000e+001  8.000000e+000  4.000000e+000
      vertex  2.440000e+001  8.000000e+000  9.866025e+000
      vertex  2.476603e+001  8.000000e+000  9.500000e+000
    endloop
  endfacet
  facet normal  0.000000e+000  1.000000e+000  0.000000e+000
    outer loop
      vertex  2.490000e+001  8.000000e+000  4.000000e+000
      vertex  2.476603e+001  8.000000e+000  9.500000e+000
      vertex  2.490000e+001  8.000000e+000  9.000000e+000
    endloop
  endfacet
  facet normal  0.000000e+000  1.000000e+000  0.000000e+000
    outer loop
      vertex  9.150000e+000  8.000000e+000  4.000000e+000
      vertex  8.150000e+000  8.000000e+000  1.000000e+001
      vertex  8.650000e+000  8.000000e+000  9.866025e+000
    endloop
  endfacet
  facet normal  0.000000e+000  1.000000e+000  0.000000e+000
    outer loop
      vertex  9.150000e+000  8.000000e+000  4.000000e+000
      vertex  8.650000e+000  8.000000e+000  9.866025e+000
      vertex  9.016026e+000  8.000000e+000  9.500000e+000
    endloop
  endfacet
  facet normal  0.000000e+000  1.000000e+000  0.000000e+000
    outer loop
      vertex  9.150000e+000  8.000000e+000  4.000000e+000
      vertex  9.016026e+000  8.000000e+000  9.500000e+000
      vertex  9.150000e+000  8.000000e+000  9.000000e+000
    endloop
  endfacet
  facet normal  -0.000000e+000  1.000000e+000  0.000000e+000
    outer loop
      vertex  0.000000e+000  8.000000e+000  0.000000e+000
      vertex  0.000000e+000  8.000000e+000  1.000000e+001
      vertex  8.150000e+000  8.000000e+000  1.000000e+001
    endloop
  endfacet
  facet normal  0.000000e+000  9.999999e-001  0.000000e+000
    outer loop
      vertex  0.000000e+000  8.000000e+000  0.000000e+000
      vertex  8.150000e+000  8.000000e+000  1.000000e+001
      vertex  9.150000e+000  8.000000e+000  4.000000e+000
    endloop
  endfacet
  facet normal  -0.000000e+000  9.999999e-001  0.000000e+000
    outer loop
      vertex  0.000000e+000  8.000000e+000  0.000000e+000
      vertex  9.150000e+000  8.000000e+000  4.000000e+000
      vertex  2.290000e+001  8.000000e+000  4.000000e+000
    endloop
  endfacet
  facet normal  -0.000000e+000  1.000000e+000  0.000000e+000
    outer loop
      vertex  0.000000e+000  8.000000e+000  0.000000e+000
      vertex  2.290000e+001  8.000000e+000  4.000000e+000
      vertex  2.490000e+001  8.000000e+000  4.000000e+000
    endloop
  endfacet
  facet normal  -0.000000e+000  1.000000e+000  0.000000e+000
    outer loop
      vertex  0.000000e+000  8.000000e+000  0.000000e+000
      vertex  2.490000e+001  8.000000e+000  4.000000e+000
      vertex  3.865000e+001  8.000000e+000  4.000000e+000
    endloop
  endfacet
  facet normal  -0.000000e+000  1.000000e+000  0.000000e+000
    outer loop
      vertex  0.000000e+000  8.000000e+000  0.000000e+000
      vertex  3.865000e+001  8.000000e+000  4.000000e+000
      vertex  4.065000e+001  8.000000e+000  4.000000e+000
    endloop
  endfacet
  facet normal  -0.000000e+000  9.999999e-001  0.000000e+000
    outer loop
      vertex  0.000000e+000  8.000000e+000  0.000000e+000
      vertex  4.065000e+001  8.000000e+000  4.000000e+000
      vertex  5.440000e+001  8.000000e+000  4.000000e+000
    endloop
  endfacet
  facet normal  -0.000000e+000  1.000000e+000  0.000000e+000
    outer loop
      vertex  0.000000e+000  8.000000e+000  0.000000e+000
      vertex  5.440000e+001  8.000000e+000  4.000000e+000
      vertex  5.640000e+001  8.000000e+000  4.000000e+000
    endloop
  endfacet
  facet normal  -0.000000e+000  9.999999e-001  0.000000e+000
    outer loop
      vertex  0.000000e+000  8.000000e+000  0.000000e+000
      vertex  5.640000e+001  8.000000e+000  4.000000e+000
      vertex  7.015000e+001  8.000000e+000  4.000000e+000
    endloop
  endfacet
  facet normal  0.000000e+000  1.000000e+000  0.000000e+000
    outer loop
      vertex  0.000000e+000  8.000000e+000  0.000000e+000
      vertex  7.015000e+001  8.000000e+000  4.000000e+000
      vertex  7.265000e+001  8.000000e+000  0.000000e+000
    endloop
  endfacet
  facet normal  -0.000000e+000  1.000000e+000  0.000000e+000
    outer loop
      vertex  7.265000e+001  8.000000e+000  0.000000e+000
      vertex  7.015000e+001  8.000000e+000  4.000000e+000
      vertex  7.015000e+001  8.000000e+000  9.000000e+000
    endloop
  endfacet
  facet normal  -0.000000e+000  1.000000e+000  0.000000e+000
    outer loop
      vertex  7.265000e+001  8.000000e+000  0.000000e+000
      vertex  7.015000e+001  8.000000e+000  9.000000e+000
      vertex  7.028397e+001  8.000000e+000  9.500000e+000
    endloop
  endfacet
  facet normal  -0.000000e+000  1.000000e+000  0.000000e+000
    outer loop
      vertex  7.265000e+001  8.000000e+000  0.000000e+000
      vertex  7.028397e+001  8.000000e+000  9.500000e+000
      vertex  7.065000e+001  8.000000e+000  9.866025e+000
    endloop
  endfacet
  facet normal  -0.000000e+000  1.000000e+000  0.000000e+000
    outer loop
      vertex  7.265000e+001  8.000000e+000  0.000000e+000
      vertex  7.065000e+001  8.000000e+000  9.866025e+000
      vertex  7.115000e+001  8.000000e+000  1.000000e+001
    endloop
  endfacet
  facet normal  -0.000000e+000  1.000000e+000  0.000000e+000
    outer loop
      vertex  7.265000e+001  8.000000e+000  0.000000e+000
      vertex  7.115000e+001  8.000000e+000  1.000000e+001
      vertex  7.265000e+001  8.000000e+000  1.000000e+001
    endloop
  endfacet
  facet normal  0.000000e+000 -1.000000e+000  0.000000e+000
    outer loop
      vertex  2.290000e+001  0.000000e+000  4.000000e+000
      vertex  2.490000e+001  0.000000e+000  4.000000e+000
      vertex  2.490000e+001  0.000000e+000  9.000000e+000
    endloop
  endfacet
  facet normal  -0.000000e+000 -1.000000e+000  0.000000e+000
    outer loop
      vertex  2.290000e+001  0.000000e+000  4.000000e+000
      vertex  2.490000e+001  0.000000e+000  9.000000e+000
      vertex  2.476603e+001  0.000000e+000  9.500000e+000
    endloop
  endfacet
  facet normal  -0.000000e+000 -1.000000e+000  0.000000e+000
    outer loop
      vertex  2.290000e+001  0.000000e+000  4.000000e+000
      vertex  2.476603e+001  0.000000e+000  9.500000e+000
      vertex  2.440000e+001  0.000000e+000  9.866025e+000
    endloop
  endfacet
  facet normal  -0.000000e+000 -1.000000e+000  0.000000e+000
    outer loop
      vertex  2.290000e+001  0.000000e+000  4.000000e+000
      vertex  2.440000e+001  0.000000e+000  9.866025e+000
      vertex  2.390000e+001  0.000000e+000  1.000000e+001
    endloop
  endfacet
  facet normal  0.000000e+000 -1.000000e+000  0.000000e+000
    outer loop
      vertex  2.290000e+001  0.000000e+000  4.000000e+000
      vertex  2.390000e+001  0.000000e+000  1.000000e+001
      vertex  2.340000e+001  0.000000e+000  9.866025e+000
    endloop
  endfacet
  facet normal  0.000000e+000 -1.000000e+000  0.000000e+000
    outer loop
      vertex  2.290000e+001  0.000000e+000  4.000000e+000
      vertex  2.340000e+001  0.000000e+000  9.866025e+000
      vertex  2.303397e+001  0.000000e+000  9.500000e+000
    endloop
  endfacet
  facet normal  0.000000e+000 -1.000000e+000  0.000000e+000
    outer loop
      vertex  2.290000e+001  0.000000e+000  4.000000e+000
      vertex  2.303397e+001  0.000000e+000  9.500000e+000
      vertex  2.290000e+001  0.000000e+000  9.000000e+000
    endloop
  endfacet
  facet normal  0.000000e+000 -1.000000e+000  0.000000e+000
    outer loop
      vertex  3.865000e+001  0.000000e+000  4.000000e+000
      vertex  4.065000e+001  0.000000e+000  4.000000e+000
      vertex  4.065000e+001  0.000000e+000  9.000000e+000
    endloop
  endfacet
  facet normal  -0.000000e+000 -1.000000e+000  0.000000e+000
    outer loop
      vertex  3.865000e+001  0.000000e+000  4.000000e+000
      vertex  4.065000e+001  0.000000e+000  9.000000e+000
      vertex  4.051603e+001  0.000000e+000  9.500000e+000
    endloop
  endfacet
  facet normal  -0.000000e+000 -1.000000e+000  0.000000e+000
    outer loop
      vertex  3.865000e+001  0.000000e+000  4.000000e+000
      vertex  4.051603e+001  0.000000e+000  9.500000e+000
      vertex  4.015000e+001  0.000000e+000  9.866025e+000
    endloop
  endfacet
  facet normal  -0.000000e+000 -1.000000e+000  0.000000e+000
    outer loop
      vertex  3.865000e+001  0.000000e+000  4.000000e+000
      vertex  4.015000e+001  0.000000e+000  9.866025e+000
      vertex  3.965000e+001  0.000000e+000  1.000000e+001
    endloop
  endfacet
  facet normal  0.000000e+000 -1.000000e+000  0.000000e+000
    outer loop
      vertex  3.865000e+001  0.000000e+000  4.000000e+000
      vertex  3.965000e+001  0.000000e+000  1.000000e+001
      vertex  3.915000e+001  0.000000e+000  9.866025e+000
    endloop
  endfacet
  facet normal  0.000000e+000 -1.000000e+000  0.000000e+000
    outer loop
      vertex  3.865000e+001  0.000000e+000  4.000000e+000
      vertex  3.915000e+001  0.000000e+000  9.866025e+000
      vertex  3.878397e+001  0.000000e+000  9.500000e+000
    endloop
  endfacet
  facet normal  0.000000e+000 -9.999999e-001  0.000000e+000
    outer loop
      vertex  3.865000e+001  0.000000e+000  4.000000e+000
      vertex  3.878397e+001  0.000000e+000  9.500000e+000
      vertex  3.865000e+001  0.000000e+000  9.000000e+000
    endloop
  endfacet
  facet normal  0.000000e+000 -1.000000e+000  0.000000e+000
    outer loop
      vertex  5.440000e+001  0.000000e+000  4.000000e+000
      vertex  5.640000e+001  0.000000e+000  4.000000e+000
      vertex  5.640000e+001  0.000000e+000  9.000000e+000
    endloop
  endfacet
  facet normal  -0.000000e+000 -1.000000e+000  0.000000e+000
    outer loop
      vertex  5.440000e+001  0.000000e+000  4.000000e+000
      vertex  5.640000e+001  0.000000e+000  9.000000e+000
      vertex  5.626603e+001  0.000000e+000  9.500000e+000
    endloop
  endfacet
  facet normal  -0.000000e+000 -1.000000e+000  0.000000e+000
    outer loop
      vertex  5.440000e+001  0.000000e+000  4.000000e+000
      vertex  5.626603e+001  0.000000e+000  9.500000e+000
      vertex  5.590000e+001  0.000000e+000  9.866025e+000
    endloop
  endfacet
  facet normal  -0.000000e+000 -1.000000e+000  0.000000e+000
    outer loop
      vertex  5.440000e+001  0.000000e+000  4.000000e+000
      vertex  5.590000e+001  0.000000e+000  9.866025e+000
      vertex  5.540000e+001  0.000000e+000  1.000000e+001
    endloop
  endfacet
  facet normal  0.000000e+000 -1.000000e+000  0.000000e+000
    outer loop
      vertex  5.440000e+001  0.000000e+000  4.000000e+000
      vertex  5.540000e+001  0.000000e+000  1.000000e+001
      vertex  5.490000e+001  0.000000e+000  9.866025e+000
    endloop
  endfacet
  facet normal  0.000000e+000 -1.000000e+000  0.000000e+000
    outer loop
      vertex  5.440000e+001  0.000000e+000  4.000000e+000
      vertex  5.490000e+001  0.000000e+000  9.866025e+000
      vertex  5.453397e+001  0.000000e+000  9.500000e+000
    endloop
  endfacet
  facet normal  0.000000e+000 -9.999999e-001  0.000000e+000
    outer loop
      vertex  5.440000e+001  0.000000e+000  4.000000e+000
      vertex  5.453397e+001  0.000000e+000  9.500000e+000
      vertex  5.440000e+001  0.000000e+000  9.000000e+000
    endloop
  endfacet
  facet normal  0.000000e+000 -1.000000e+000  0.000000e+000
    outer loop
      vertex  7.015000e+001  0.000000e+000  4.000000e+000
      vertex  7.115000e+001  0.000000e+000  1.000000e+001
      vertex  7.065000e+001  0.000000e+000  9.866025e+000
    endloop
  endfacet
  facet normal  0.000000e+000 -1.000000e+000  0.000000e+000
    outer loop
      vertex  7.015000e+001  0.000000e+000  4.000000e+000
      vertex  7.065000e+001  0.000000e+000  9.866025e+000
      vertex  7.028397e+001  0.000000e+000  9.500000e+000
    endloop
  endfacet
  facet normal  0.000000e+000 -9.999999e-001  0.000000e+000
    outer loop
      vertex  7.015000e+001  0.000000e+000  4.000000e+000
      vertex  7.028397e+001  0.000000e+000  9.500000e+000
      vertex  7.015000e+001  0.000000e+000  9.000000e+000
    endloop
  endfacet
  facet normal  -0.000000e+000 -1.000000e+000  -0.000000e+000
    outer loop
      vertex  7.265000e+001  0.000000e+000  0.000000e+000
      vertex  7.265000e+001  0.000000e+000  1.000000e+001
      vertex  7.115000e+001  0.000000e+000  1.000000e+001
    endloop
  endfacet
  facet normal  0.000000e+000 -1.000000e+000  -0.000000e+000
    outer loop
      vertex  7.265000e+001  0.000000e+000  0.000000e+000
      vertex  7.115000e+001  0.000000e+000  1.000000e+001
      vertex  7.015000e+001  0.000000e+000  4.000000e+000
    endloop
  endfacet
  facet normal  -0.000000e+000 -9.999999e-001  -0.000000e+000
    outer loop
      vertex  7.265000e+001  0.000000e+000  0.000000e+000
      vertex  7.015000e+001  0.000000e+000  4.000000e+000
      vertex  5.640000e+001  0.000000e+000  4.000000e+000
    endloop
  endfacet
  facet normal  -0.000000e+000 -1.000000e+000  -0.000000e+000
    outer loop
      vertex  7.265000e+001  0.000000e+000  0.000000e+000
      vertex  5.640000e+001  0.000000e+000  4.000000e+000
      vertex  5.440000e+001  0.000000e+000  4.000000e+000
    endloop
  endfacet
  facet normal  -0.000000e+000 -9.999999e-001  -0.000000e+000
    outer loop
      vertex  7.265000e+001  0.000000e+000  0.000000e+000
      vertex  5.440000e+001  0.000000e+000  4.000000e+000
      vertex  4.065000e+001  0.000000e+000  4.000000e+000
    endloop
  endfacet
  facet normal  -0.000000e+000 -1.000000e+000  -0.000000e+000
    outer loop
      vertex  7.265000e+001  0.000000e+000  0.000000e+000
      vertex  4.065000e+001  0.000000e+000  4.000000e+000
      vertex  3.865000e+001  0.000000e+000  4.000000e+000
    endloop
  endfacet
  facet normal  -0.000000e+000 -1.000000e+000  -0.000000e+000
    outer loop
      vertex  7.265000e+001  0.000000e+000  0.000000e+000
      vertex  3.865000e+001  0.000000e+000  4.000000e+000
      vertex  2.490000e+001  0.000000e+000  4.000000e+000
    endloop
  endfacet
  facet normal  -0.000000e+000 -1.000000e+000  -0.000000e+000
    outer loop
      vertex  7.265000e+001  0.000000e+000  0.000000e+000
      vertex  2.490000e+001  0.000000e+000  4.000000e+000
      vertex  2.290000e+001  0.000000e+000  4.000000e+000
    endloop
  endfacet
  facet normal  -0.000000e+000 -9.999999e-001  -0.000000e+000
    outer loop
      vertex  7.265000e+001  0.000000e+000  0.000000e+000
      vertex  2.290000e+001  0.000000e+000  4.000000e+000
      vertex  9.150000e+000  0.000000e+000  4.000000e+000
    endloop
  endfacet
  facet normal -9.780354e-017 -1.000000e+000 -1.552631e-015
    outer loop
      vertex  7.265000e+001  0.000000e+000  0.000000e+000
      vertex  9.150000e+000  0.000000e+000  4.000000e+000
      vertex  0.000000e+000  7.105427e-015  0.000000e+000
    endloop
  endfacet
  facet normal -7.765494e-016 -1.000000e+000  0.000000e+000
    outer loop
      vertex  0.000000e+000  7.105427e-015  0.000000e+000
      vertex  9.150000e+000  0.000000e+000  4.000000e+000
      vertex  9.150000e+000  0.000000e+000  9.000000e+000
    endloop
  endfacet
  facet normal -6.145749e-016 -1.000000e+000 -1.646742e-016
    outer loop
      vertex  0.000000e+000  7.105427e-015  0.000000e+000
      vertex  9.150000e+000  0.000000e+000  9.000000e+000
      vertex  9.016026e+000  0.000000e+000  9.500000e+000
    endloop
  endfacet
  facet normal -3.837442e-016 -9.999999e-001 -3.837452e-016
    outer loop
      vertex  0.000000e+000  7.105427e-015  0.000000e+000
      vertex  9.016026e+000  0.000000e+000  9.500000e+000
      vertex  8.650000e+000  0.000000e+000  9.866025e+000
    endloop
  endfacet
  facet normal -1.562649e-016 -1.000000e+000 -5.831868e-016
    outer loop
      vertex  0.000000e+000  7.105427e-015  0.000000e+000
      vertex  8.650000e+000  0.000000e+000  9.866025e+000
      vertex  8.150000e+000  0.000000e+000  1.000000e+001
    endloop
  endfacet
  facet normal -8.718315e-016 -1.000000e+000  0.000000e+000
    outer loop
      vertex  0.000000e+000  7.105427e-015  0.000000e+000
      vertex  8.150000e+000  0.000000e+000  1.000000e+001
      vertex  0.000000e+000  7.105427e-015  1.000000e+001
    endloop
  endfacet
  facet normal  1.000000e+000  0.000000e+000  0.000000e+000
    outer loop
      vertex  9.150000e+000  8.000000e+000  4.000000e+000
      vertex  9.150000e+000  8.000000e+000  9.000000e+000
      vertex  9.150000e+000  0.000000e+000  4.000000e+000
    endloop
  endfacet
  facet normal  1.000000e+000  0.000000e+000  0.000000e+000
    outer loop
      vertex  9.150000e+000  0.000000e+000  4.000000e+000
      vertex  9.150000e+000  8.000000e+000  9.000000e+000
      vertex  9.150000e+000  0.000000e+000  9.000000e+000
    endloop
  endfacet
  facet normal  0.000000e+000  0.000000e+000  1.000000e+000
    outer loop
      vertex  0.000000e+000  7.105427e-015  1.000000e+001
      vertex  8.150000e+000  0.000000e+000  1.000000e+001
      vertex  0.000000e+000  8.000000e+000  1.000000e+001
    endloop
  endfacet
  facet normal  -0.000000e+000  0.000000e+000  1.000000e+000
    outer loop
      vertex  0.000000e+000  8.000000e+000  1.000000e+001
      vertex  8.150000e+000  0.000000e+000  1.000000e+001
      vertex  8.150000e+000  8.000000e+000  1.000000e+001
    endloop
  endfacet
  facet normal  2.588198e-001  -0.000000e+000  9.659256e-001
    outer loop
      vertex  8.150000e+000  8.000000e+000  1.000000e+001
      vertex  8.150000e+000  0.000000e+000  1.000000e+001
      vertex  8.650000e+000  8.000000e+000  9.866025e+000
    endloop
  endfacet
  facet normal  2.588198e-001  0.000000e+000  9.659256e-001
    outer loop
      vertex  8.650000e+000  8.000000e+000  9.866025e+000
      vertex  8.150000e+000  0.000000e+000  1.000000e+001
      vertex  8.650000e+000  0.000000e+000  9.866025e+000
    endloop
  endfacet
  facet normal  7.071059e-001  -0.000000e+000  7.071077e-001
    outer loop
      vertex  8.650000e+000  8.000000e+000  9.866025e+000
      vertex  8.650000e+000  0.000000e+000  9.866025e+000
      vertex  9.016026e+000  8.000000e+000  9.500000e+000
    endloop
  endfacet
  facet normal  7.071059e-001  0.000000e+000  7.071077e-001
    outer loop
      vertex  9.016026e+000  8.000000e+000  9.500000e+000
      vertex  8.650000e+000  0.000000e+000  9.866025e+000
      vertex  9.016026e+000  0.000000e+000  9.500000e+000
    endloop
  endfacet
  facet normal  9.659261e-001  -0.000000e+000  2.588181e-001
    outer loop
      vertex  9.016026e+000  8.000000e+000  9.500000e+000
      vertex  9.016026e+000  0.000000e+000  9.500000e+000
      vertex  9.150000e+000  8.000000e+000  9.000000e+000
    endloop
  endfacet
  facet normal  9.659261e-001  0.000000e+000  2.588181e-001
    outer loop
      vertex  9.150000e+000  8.000000e+000  9.000000e+000
      vertex  9.016026e+000  0.000000e+000  9.500000e+000
      vertex  9.150000e+000  0.000000e+000  9.000000e+000
    endloop
  endfacet
  facet normal -1.000000e+000  0.000000e+000  0.000000e+000
    outer loop
      vertex  2.290000e+001  0.000000e+000  4.000000e+000
      vertex  2.290000e+001  0.000000e+000  9.000000e+000
      vertex  2.290000e+001  8.000000e+000  4.000000e+000
    endloop
  endfacet
  facet normal -1.000000e+000  0.000000e+000  0.000000e+000
    outer loop
      vertex  2.290000e+001  8.000000e+000  4.000000e+000
      vertex  2.290000e+001  0.000000e+000  9.000000e+000
      vertex  2.290000e+001  8.000000e+000  9.000000e+000
    endloop
  endfacet
  facet normal -2.588198e-001  0.000000e+000  9.659256e-001
    outer loop
      vertex  2.390000e+001  0.000000e+000  1.000000e+001
      vertex  2.390000e+001  8.000000e+000  1.000000e+001
      vertex  2.340000e+001  0.000000e+000  9.866025e+000
    endloop
  endfacet
  facet normal -2.588198e-001  0.000000e+000  9.659256e-001
    outer loop
      vertex  2.340000e+001  0.000000e+000  9.866025e+000
      vertex  2.390000e+001  8.000000e+000  1.000000e+001
      vertex  2.340000e+001  8.000000e+000  9.866025e+000
    endloop
  endfacet
  facet normal -7.071059e-001  0.000000e+000  7.071077e-001
    outer loop
      vertex  2.340000e+001  0.000000e+000  9.866025e+000
      vertex  2.340000e+001  8.000000e+000  9.866025e+000
      vertex  2.303397e+001  0.000000e+000  9.500000e+000
    endloop
  endfacet
  facet normal -7.071059e-001  0.000000e+000  7.071077e-001
    outer loop
      vertex  2.303397e+001  0.000000e+000  9.500000e+000
      vertex  2.340000e+001  8.000000e+000  9.866025e+000
      vertex  2.303397e+001  8.000000e+000  9.500000e+000
    endloop
  endfacet
  facet normal -9.659261e-001  0.000000e+000  2.588181e-001
    outer loop
      vertex  2.303397e+001  0.000000e+000  9.500000e+000
      vertex  2.303397e+001  8.000000e+000  9.500000e+000
      vertex  2.290000e+001  0.000000e+000  9.000000e+000
    endloop
  endfacet
  facet normal -9.659261e-001  0.000000e+000  2.588181e-001
    outer loop
      vertex  2.290000e+001  0.000000e+000  9.000000e+000
      vertex  2.303397e+001  8.000000e+000  9.500000e+000
      vertex  2.290000e+001  8.000000e+000  9.000000e+000
    endloop
  endfacet
  facet normal  1.000000e+000  0.000000e+000  0.000000e+000
    outer loop
      vertex  2.490000e+001  8.000000e+000  4.000000e+000
      vertex  2.490000e+001  8.000000e+000  9.000000e+000
      vertex  2.490000e+001  0.000000e+000  4.000000e+000
    endloop
  endfacet
  facet normal  1.000000e+000  0.000000e+000  0.000000e+000
    outer loop
      vertex  2.490000e+001  0.000000e+000  4.000000e+000
      vertex  2.490000e+001  8.000000e+000  9.000000e+000
      vertex  2.490000e+001  0.000000e+000  9.000000e+000
    endloop
  endfacet
  facet normal  2.588198e-001  -0.000000e+000  9.659256e-001
    outer loop
      vertex  2.390000e+001  8.000000e+000  1.000000e+001
      vertex  2.390000e+001  0.000000e+000  1.000000e+001
      vertex  2.440000e+001  8.000000e+000  9.866025e+000
    endloop
  endfacet
  facet normal  2.588198e-001  0.000000e+000  9.659256e-001
    outer loop
      vertex  2.440000e+001  8.000000e+000  9.866025e+000
      vertex  2.390000e+001  0.000000e+000  1.000000e+001
      vertex  2.440000e+001  0.000000e+000  9.866025e+000
    endloop
  endfacet
  facet normal  7.071059e-001  -0.000000e+000  7.071077e-001
    outer loop
      vertex  2.440000e+001  8.000000e+000  9.866025e+000
      vertex  2.440000e+001  0.000000e+000  9.866025e+000
      vertex  2.476603e+001  8.000000e+000  9.500000e+000
    endloop
  endfacet
  facet normal  7.071059e-001  0.000000e+000  7.071077e-001
    outer loop
      vertex  2.476603e+001  8.000000e+000  9.500000e+000
      vertex  2.440000e+001  0.000000e+000  9.866025e+000
      vertex  2.476603e+001  0.000000e+000  9.500000e+000
    endloop
  endfacet
  facet normal  9.659261e-001  -0.000000e+000  2.588181e-001
    outer loop
      vertex  2.476603e+001  8.000000e+000  9.500000e+000
      vertex  2.476603e+001  0.000000e+000  9.500000e+000
      vertex  2.490000e+001  8.000000e+000  9.000000e+000
    endloop
  endfacet
  facet normal  9.659261e-001  0.000000e+000  2.588181e-001
    outer loop
      vertex  2.490000e+001  8.000000e+000  9.000000e+000
      vertex  2.476603e+001  0.000000e+000  9.500000e+000
      vertex  2.490000e+001  0.000000e+000  9.000000e+000
    endloop
  endfacet
  facet normal -1.000000e+000  0.000000e+000  0.000000e+000
    outer loop
      vertex  7.015000e+001  0.000000e+000  4.000000e+000
      vertex  7.015000e+001  0.000000e+000  9.000000e+000
      vertex  7.015000e+001  8.000000e+000  4.000000e+000
    endloop
  endfacet
  facet normal -1.000000e+000  0.000000e+000  0.000000e+000
    outer loop
      vertex  7.015000e+001  8.000000e+000  4.000000e+000
      vertex  7.015000e+001  0.000000e+000  9.000000e+000
      vertex  7.015000e+001  8.000000e+000  9.000000e+000
    endloop
  endfacet
  facet normal  0.000000e+000  0.000000e+000  1.000000e+000
    outer loop
      vertex  7.115000e+001  0.000000e+000  1.000000e+001
      vertex  7.265000e+001  0.000000e+000  1.000000e+001
      vertex  7.115000e+001  8.000000e+000  1.000000e+001
    endloop
  endfacet
  facet normal  -0.000000e+000  0.000000e+000  1.000000e+000
    outer loop
      vertex  7.115000e+001  8.000000e+000  1.000000e+001
      vertex  7.265000e+001  0.000000e+000  1.000000e+001
      vertex  7.265000e+001  8.000000e+000  1.000000e+001
    endloop
  endfacet
  facet normal -2.588198e-001  0.000000e+000  9.659256e-001
    outer loop
      vertex  7.115000e+001  0.000000e+000  1.000000e+001
      vertex  7.115000e+001  8.000000e+000  1.000000e+001
      vertex  7.065000e+001  0.000000e+000  9.866025e+000
    endloop
  endfacet
  facet normal -2.588198e-001  0.000000e+000  9.659256e-001
    outer loop
      vertex  7.065000e+001  0.000000e+000  9.866025e+000
      vertex  7.115000e+001  8.000000e+000  1.000000e+001
      vertex  7.065000e+001  8.000000e+000  9.866025e+000
    endloop
  endfacet
  facet normal -7.071040e-001  0.000000e+000  7.071096e-001
    outer loop
      vertex  7.065000e+001  0.000000e+000  9.866025e+000
      vertex  7.065000e+001  8.000000e+000  9.866025e+000
      vertex  7.028397e+001  0.000000e+000  9.500000e+000
    endloop
  endfacet
  facet normal -7.071040e-001  0.000000e+000  7.071096e-001
    outer loop
      vertex  7.028397e+001  0.000000e+000  9.500000e+000
      vertex  7.065000e+001  8.000000e+000  9.866025e+000
      vertex  7.028397e+001  8.000000e+000  9.500000e+000
    endloop
  endfacet
  facet normal -9.659271e-001  0.000000e+000  2.588147e-001
    outer loop
      vertex  7.028397e+001  0.000000e+000  9.500000e+000
      vertex  7.028397e+001  8.000000e+000  9.500000e+000
      vertex  7.015000e+001  0.000000e+000  9.000000e+000
    endloop
  endfacet
  facet normal -9.659271e-001  0.000000e+000  2.588147e-001
    outer loop
      vertex  7.015000e+001  0.000000e+000  9.000000e+000
      vertex  7.028397e+001  8.000000e+000  9.500000e+000
      vertex  7.015000e+001  8.000000e+000  9.000000e+000
    endloop
  endfacet
  facet normal  1.000000e+000  0.000000e+000  0.000000e+000
    outer loop
      vertex  5.640000e+001  8.000000e+000  4.000000e+000
      vertex  5.640000e+001  8.000000e+000  9.000000e+000
      vertex  5.640000e+001  0.000000e+000  4.000000e+000
    endloop
  endfacet
  facet normal  1.000000e+000  0.000000e+000  0.000000e+000
    outer loop
      vertex  5.640000e+001  0.000000e+000  4.000000e+000
      vertex  5.640000e+001  8.000000e+000  9.000000e+000
      vertex  5.640000e+001  0.000000e+000  9.000000e+000
    endloop
  endfacet
  facet normal  2.588198e-001  -0.000000e+000  9.659256e-001
    outer loop
      vertex  5.540000e+001  8.000000e+000  1.000000e+001
      vertex  5.540000e+001  0.000000e+000  1.000000e+001
      vertex  5.590000e+001  8.000000e+000  9.866025e+000
    endloop
  endfacet
  facet normal  2.588198e-001  0.000000e+000  9.659256e-001
    outer loop
      vertex  5.590000e+001  8.000000e+000  9.866025e+000
      vertex  5.540000e+001  0.000000e+000  1.000000e+001
      vertex  5.590000e+001  0.000000e+000  9.866025e+000
    endloop
  endfacet
  facet normal  7.071077e-001  -0.000000e+000  7.071059e-001
    outer loop
      vertex  5.590000e+001  8.000000e+000  9.866025e+000
      vertex  5.590000e+001  0.000000e+000  9.866025e+000
      vertex  5.626603e+001  8.000000e+000  9.500000e+000
    endloop
  endfacet
  facet normal  7.071077e-001  0.000000e+000  7.071059e-001
    outer loop
      vertex  5.626603e+001  8.000000e+000  9.500000e+000
      vertex  5.590000e+001  0.000000e+000  9.866025e+000
      vertex  5.626603e+001  0.000000e+000  9.500000e+000
    endloop
  endfacet
  facet normal  9.659252e-001  -0.000000e+000  2.588215e-001
    outer loop
      vertex  5.626603e+001  8.000000e+000  9.500000e+000
      vertex  5.626603e+001  0.000000e+000  9.500000e+000
      vertex  5.640000e+001  8.000000e+000  9.000000e+000
    endloop
  endfacet
  facet normal  9.659252e-001  0.000000e+000  2.588215e-001
    outer loop
      vertex  5.640000e+001  8.000000e+000  9.000000e+000
      vertex  5.626603e+001  0.000000e+000  9.500000e+000
      vertex  5.640000e+001  0.000000e+000  9.000000e+000
    endloop
  endfacet
  facet normal -1.000000e+000  0.000000e+000  0.000000e+000
    outer loop
      vertex  5.440000e+001  0.000000e+000  4.000000e+000
      vertex  5.440000e+001  0.000000e+000  9.000000e+000
      vertex  5.440000e+001  8.000000e+000  4.000000e+000
    endloop
  endfacet
  facet normal -1.000000e+000  0.000000e+000  0.000000e+000
    outer loop
      vertex  5.440000e+001  8.000000e+000  4.000000e+000
      vertex  5.440000e+001  0.000000e+000  9.000000e+000
      vertex  5.440000e+001  8.000000e+000  9.000000e+000
    endloop
  endfacet
  facet normal -2.588198e-001  0.000000e+000  9.659256e-001
    outer loop
      vertex  5.540000e+001  0.000000e+000  1.000000e+001
      vertex  5.540000e+001  8.000000e+000  1.000000e+001
      vertex  5.490000e+001  0.000000e+000  9.866025e+000
    endloop
  endfacet
  facet normal -2.588198e-001  0.000000e+000  9.659256e-001
    outer loop
      vertex  5.490000e+001  0.000000e+000  9.866025e+000
      vertex  5.540000e+001  8.000000e+000  1.000000e+001
      vertex  5.490000e+001  8.000000e+000  9.866025e+000
    endloop
  endfacet
  facet normal -7.071040e-001  0.000000e+000  7.071096e-001
    outer loop
      vertex  5.490000e+001  0.000000e+000  9.866025e+000
      vertex  5.490000e+001  8.000000e+000  9.866025e+000
      vertex  5.453397e+001  0.000000e+000  9.500000e+000
    endloop
  endfacet
  facet normal -7.071040e-001  0.000000e+000  7.071096e-001
    outer loop
      vertex  5.453397e+001  0.000000e+000  9.500000e+000
      vertex  5.490000e+001  8.000000e+000  9.866025e+000
      vertex  5.453397e+001  8.000000e+000  9.500000e+000
    endloop
  endfacet
  facet normal -9.659271e-001  0.000000e+000  2.588147e-001
    outer loop
      vertex  5.453397e+001  0.000000e+000  9.500000e+000
      vertex  5.453397e+001  8.000000e+000  9.500000e+000
      vertex  5.440000e+001  0.000000e+000  9.000000e+000
    endloop
  endfacet
  facet normal -9.659271e-001  0.000000e+000  2.588147e-001
    outer loop
      vertex  5.440000e+001  0.000000e+000  9.000000e+000
      vertex  5.453397e+001  8.000000e+000  9.500000e+000
      vertex  5.440000e+001  8.000000e+000  9.000000e+000
    endloop
  endfacet
  facet normal -1.000000e+000  0.000000e+000  0.000000e+000
    outer loop
      vertex  3.865000e+001  0.000000e+000  4.000000e+000
      vertex  3.865000e+001  0.000000e+000  9.000000e+000
      vertex  3.865000e+001  8.000000e+000  4.000000e+000
    endloop
  endfacet
  facet normal -1.000000e+000  0.000000e+000  0.000000e+000
    outer loop
      vertex  3.865000e+001  8.000000e+000  4.000000e+000
      vertex  3.865000e+001  0.000000e+000  9.000000e+000
      vertex  3.865000e+001  8.000000e+000  9.000000e+000
    endloop
  endfacet
  facet normal  2.588198e-001  -0.000000e+000  9.659256e-001
    outer loop
      vertex  3.965000e+001  8.000000e+000  1.000000e+001
      vertex  3.965000e+001  0.000000e+000  1.000000e+001
      vertex  4.015000e+001  8.000000e+000  9.866025e+000
    endloop
  endfacet
  facet normal  2.588198e-001  0.000000e+000  9.659256e-001
    outer loop
      vertex  4.015000e+001  8.000000e+000  9.866025e+000
      vertex  3.965000e+001  0.000000e+000  1.000000e+001
      vertex  4.015000e+001  0.000000e+000  9.866025e+000
    endloop
  endfacet
  facet normal  7.071077e-001  -0.000000e+000  7.071059e-001
    outer loop
      vertex  4.015000e+001  8.000000e+000  9.866025e+000
      vertex  4.015000e+001  0.000000e+000  9.866025e+000
      vertex  4.051603e+001  8.000000e+000  9.500000e+000
    endloop
  endfacet
  facet normal  7.071077e-001  0.000000e+000  7.071059e-001
    outer loop
      vertex  4.051603e+001  8.000000e+000  9.500000e+000
      vertex  4.015000e+001  0.000000e+000  9.866025e+000
      vertex  4.051603e+001  0.000000e+000  9.500000e+000
    endloop
  endfacet
  facet normal  9.659252e-001  -0.000000e+000  2.588215e-001
    outer loop
      vertex  4.051603e+001  8.000000e+000  9.500000e+000
      vertex  4.051603e+001  0.000000e+000  9.500000e+000
      vertex  4.065000e+001  8.000000e+000  9.000000e+000
    endloop
  endfacet
  facet normal  9.659252e-001  0.000000e+000  2.588215e-001
    outer loop
      vertex  4.065000e+001  8.000000e+000  9.000000e+000
      vertex  4.051603e+001  0.000000e+000  9.500000e+000
      vertex  4.065000e+001  0.000000e+000  9.000000e+000
    endloop
  endfacet
  facet normal -2.588198e-001  0.000000e+000  9.659256e-001
    outer loop
      vertex  3.965000e+001  0.000000e+000  1.000000e+001
      vertex  3.965000e+001  8.000000e+000  1.000000e+001
      vertex  3.915000e+001  0.000000e+000  9.866025e+000
    endloop
  endfacet
  facet normal -2.588198e-001  0.000000e+000  9.659256e-001
    outer loop
      vertex  3.915000e+001  0.000000e+000  9.866025e+000
      vertex  3.965000e+001  8.000000e+000  1.000000e+001
      vertex  3.915000e+001  8.000000e+000  9.866025e+000
    endloop
  endfacet
  facet normal -7.071040e-001  0.000000e+000  7.071096e-001
    outer loop
      vertex  3.915000e+001  0.000000e+000  9.866025e+000
      vertex  3.915000e+001  8.000000e+000  9.866025e+000
      vertex  3.878397e+001  0.000000e+000  9.500000e+000
    endloop
  endfacet
  facet normal -7.071040e-001  0.000000e+000  7.071096e-001
    outer loop
      vertex  3.878397e+001  0.000000e+000  9.500000e+000
      vertex  3.915000e+001  8.000000e+000  9.866025e+000
      vertex  3.878397e+001  8.000000e+000  9.500000e+000
    endloop
  endfacet
  facet normal -9.659271e-001  0.000000e+000  2.588147e-001
    outer loop
      vertex  3.878397e+001  0.000000e+000  9.500000e+000
      vertex  3.878397e+001  8.000000e+000  9.500000e+000
      vertex  3.865000e+001  0.000000e+000  9.000000e+000
    endloop
  endfacet
  facet normal -9.659271e-001  0.000000e+000  2.588147e-001
    outer loop
      vertex  3.865000e+001  0.000000e+000  9.000000e+000
      vertex  3.878397e+001  8.000000e+000  9.500000e+000
      vertex  3.865000e+001  8.000000e+000  9.000000e+000
    endloop
  endfacet
  facet normal  1.000000e+000  0.000000e+000  0.000000e+000
    outer loop
      vertex  4.065000e+001  8.000000e+000  4.000000e+000
      vertex  4.065000e+001  8.000000e+000  9.000000e+000
      vertex  4.065000e+001  0.000000e+000  4.000000e+000
    endloop
  endfacet
  facet normal  1.000000e+000  0.000000e+000  0.000000e+000
    outer loop
      vertex  4.065000e+001  0.000000e+000  4.000000e+000
      vertex  4.065000e+001  8.000000e+000  9.000000e+000
      vertex  4.065000e+001  0.000000e+000  9.000000e+000
    endloop
  endfacet
  facet normal  0.000000e+000  0.000000e+000  9.999999e-001
    outer loop
      vertex  5.640000e+001  0.000000e+000  4.000000e+000
      vertex  7.015000e+001  0.000000e+000  4.000000e+000
      vertex  5.640000e+001  8.000000e+000  4.000000e+000
    endloop
  endfacet
  facet normal  -0.000000e+000  0.000000e+000  9.999999e-001
    outer loop
      vertex  5.640000e+001  8.000000e+000  4.000000e+000
      vertex  7.015000e+001  0.000000e+000  4.000000e+000
      vertex  7.015000e+001  8.000000e+000  4.000000e+000
    endloop
  endfacet
  facet normal  0.000000e+000  0.000000e+000  9.999999e-001
    outer loop
      vertex  4.065000e+001  0.000000e+000  4.000000e+000
      vertex  5.440000e+001  0.000000e+000  4.000000e+000
      vertex  4.065000e+001  8.000000e+000  4.000000e+000
    endloop
  endfacet
  facet normal  -0.000000e+000  0.000000e+000  9.999999e-001
    outer loop
      vertex  4.065000e+001  8.000000e+000  4.000000e+000
      vertex  5.440000e+001  0.000000e+000  4.000000e+000
      vertex  5.440000e+001  8.000000e+000  4.000000e+000
    endloop
  endfacet
  facet normal  0.000000e+000  0.000000e+000  1.000000e+000
    outer loop
      vertex  2.490000e+001  0.000000e+000  4.000000e+000
      vertex  3.865000e+001  0.000000e+000  4.000000e+000
      vertex  2.490000e+001  8.000000e+000  4.000000e+000
    endloop
  endfacet
  facet normal  -0.000000e+000  0.000000e+000  1.000000e+000
    outer loop
      vertex  2.490000e+001  8.000000e+000  4.000000e+000
      vertex  3.865000e+001  0.000000e+000  4.000000e+000
      vertex  3.865000e+001  8.000000e+000  4.000000e+000
    endloop
  endfacet
  facet normal  0.000000e+000  0.000000e+000  9.999999e-001
    outer loop
      vertex  9.150000e+000  0.000000e+000  4.000000e+000
      vertex  2.290000e+001  0.000000e+000  4.000000e+000
      vertex  9.150000e+000  8.000000e+000  4.000000e+000
    endloop
  endfacet
  facet normal  -0.000000e+000  0.000000e+000  9.999999e-001
    outer loop
      vertex  9.150000e+000  8.000000e+000  4.000000e+000
      vertex  2.290000e+001  0.000000e+000  4.000000e+000
      vertex  2.290000e+001  8.000000e+000  4.000000e+000
    endloop
  endfacet
  facet normal  0.000000e+000  0.000000e+000 -1.000000e+000
    outer loop
      vertex  7.265000e+001  0.000000e+000  0.000000e+000
      vertex  0.000000e+000  7.105427e-015  0.000000e+000
      vertex  7.265000e+001  8.000000e+000  0.000000e+000
    endloop
  endfacet
  facet normal  -0.000000e+000  0.000000e+000 -1.000000e+000
    outer loop
      vertex  7.265000e+001  8.000000e+000  0.000000e+000
      vertex  0.000000e+000  7.105427e-015  0.000000e+000
      vertex  0.000000e+000  8.000000e+000  0.000000e+000
    endloop
  endfacet
  facet normal  1.000000e+000  0.000000e+000  0.000000e+000
    outer loop
      vertex  7.265000e+001  0.000000e+000  0.000000e+000
      vertex  7.265000e+001  8.000000e+000  0.000000e+000
      vertex  7.265000e+001  0.000000e+000  1.000000e+001
    endloop
  endfacet
  facet normal  1.000000e+000  -0.000000e+000  0.000000e+000
    outer loop
      vertex  7.265000e+001  0.000000e+000  1.000000e+001
      vertex  7.265000e+001  8.000000e+000  0.000000e+000
      vertex  7.265000e+001  8.000000e+000  1.000000e+001
    endloop
  endfacet
  facet normal -1.000000e+000  0.000000e+000  0.000000e+000
    outer loop
      vertex  0.000000e+000  8.000000e+000  0.000000e+000
      vertex  0.000000e+000  7.105427e-015  0.000000e+000
      vertex  0.000000e+000  8.000000e+000  1.000000e+001
    endloop
  endfacet
  facet normal -1.000000e+000  -0.000000e+000  0.000000e+000
    outer loop
      vertex  0.000000e+000  8.000000e+000  1.000000e+001
      vertex  0.000000e+000  7.105427e-015  0.000000e+000
      vertex  0.000000e+000  7.105427e-015  1.000000e+001
    endloop
  endfacet
endsolid CATIA STL
